<?xml version="1.0" encoding="utf-8"?>
<!-- Generator: Adobe Illustrator 19.2.1, SVG Export Plug-In . SVG Version: 6.00 Build 0)  -->
<svg version="1.1" id="图层_1" xmlns="http://www.w3.org/2000/svg" xmlns:xlink="http://www.w3.org/1999/xlink" x="0px" y="0px"
	 viewBox="0 0 595.3 841.9" style="enable-background:new 0 0 595.3 841.9;" xml:space="preserve">
				        <style type="text/css">
				            .st0{fill-rule:evenodd;clip-rule:evenodd;fill:#272536;}
				        </style>
				        <g>
				                <path class="st0" d="M407.7,650.2c0-8.6-6.2-15.6-13.8-15.6H200.1c-7.6,0-13.8,7-13.8,15.6v38.9c0,12.9-10.5,23.3-23.3,23.3H71.2
					                                c-12.9,0-23.3,10.5-23.3,23.3v0c0,12.9,10.5,23.3,23.3,23.3h451.6c12.9,0,23.3-10.5,23.3-23.3v0c0-12.9-10.5-23.3-23.3-23.3h-91.7
					                                c-12.9,0-23.3-10.5-23.3-23.3V650.2L407.7,650.2L407.7,650.2 M608.3,82.9H-14.3c-25.8,0-46.7,20.9-46.7,46.7v435.8
					                                c0,25.8,20.9,46.7,46.7,46.7h622.6c25.8,0,46.7-20.9,46.7-46.7V129.6C655,103.8,634.1,82.9,608.3,82.9L608.3,82.9L608.3,82.9
					                                 M608.3,549.8c0,8.6-7,15.6-15.6,15.6H1.3c-8.6,0-15.6-7-15.6-15.6V145.1c0-8.6,7-15.6,15.6-15.6h591.5c8.6,0,15.6,7,15.6,15.6
					                                V549.8L608.3,549.8L608.3,549.8 M448.8,520h84.2V274.8h-84.2V520L448.8,520L448.8,520 M314.1,520h84.2V199.4h-84.2V520L314.1,520
					                                L314.1,520 M61.5,520h84.2v-94.3H61.5V520L61.5,520L61.5,520 M179.4,520h84.2V350.3h-84.2V520L179.4,520L179.4,520 M179.4,520
					                                L179.4,520z">
					            </path>
				        </g>
	        		</svg>