<?xml version="1.0" encoding="utf-8"?>
<svg version="1.1" id="图层_1" xmlns="http://www.w3.org/2000/svg" xmlns:xlink="http://www.w3.org/1999/xlink" x="0px" y="0px"
	 viewBox="0 0 595.3 841.9" style="enable-background:new 0 0 595.3 841.9;" xml:space="preserve">
  <style type="text/css">
    .st0 {
      fill-rule: evenodd;
      clip-rule: evenodd;
      fill: #272536;
    }
  </style>
  <g>
    <path class="st0" d="M117.6,216.9c9.2-11.7,19.4-22.5,30.5-32.2c0,0,0,0,0,0l-55.2-55.2c-8.7-8.7-22.7-8.7-31.4,0
                            c-8.7,8.7-8.7,22.7,0,31.4L117.6,216.9L117.6,216.9L117.6,216.9z M297,128.1c0.2,0,0.4,0,0.6,0c7.3,0,14.5,0.5,21.5,1.2
                            c0,0,0,0,0,0V54.6C319.2,43,310.6,33,299,32c-13.2-1.1-24.1,9.2-24.1,22.1v75.1c0,0,0,0,0,0c7.1-0.7,14.3-1.2,21.5-1.2
                            C296.6,128.1,296.8,128.1,297,128.1L297,128.1L297,128.1z M476.6,216.8l56-56c8.7-8.7,8.7-22.7,0-31.4c-8.6-8.7-22.7-8.7-31.4,0
                            l-55.2,55.2c0,0,0,0,0,0C457.1,194.4,467.3,205.2,476.6,216.8L476.6,216.8L476.6,216.8z M63,374.3c0-10.7,0.9-21.2,2.1-31.6
                            c0,0,0,0,0,0h-78.9c-12.2,0-22.2,9.9-22.2,22.2c0,12.3,9.9,22.2,22.2,22.2h77.1c0,0,0,0,0,0C63.1,382.9,63,378.6,63,374.3L63,374.3
                            L63,374.3z M607.9,342.7H529c0,0,0,0,0,0c1.3,10.4,2.1,20.8,2.1,31.6c0,4.3-0.1,8.6-0.2,12.8c0,0,0,0,0,0h76.5
                            c11.6,0,21.6-8.7,22.6-20.2C631.1,353.8,620.8,342.7,607.9,342.7L607.9,342.7L607.9,342.7z M488.2,524.7c-9,13.2-18.6,24.7-27.7,35
                            c0,0,0,0,0,0l40.6,40.6c8.7,8.7,22.8,8.7,31.4,0c8.7-8.7,8.7-22.7,0-31.4L488.2,524.7L488.2,524.7L488.2,524.7z M61.5,569
                            c-8.7,8.7-8.7,22.7,0,31.4c8.7,8.7,22.8,8.7,31.4,0l40.6-40.7c0,0,0,0,0,0c-9.2-10.3-18.7-21.7-27.7-34.9c0,0,0,0,0,0L61.5,569
                            L61.5,569L61.5,569z M500.3,374.3c0-46-15.3-88.6-41.2-122.7c-22.7-30-53.4-53.4-89.1-67.2l0.2-1l-15.2-4.5
                            c-11.8-3.4-24-5.8-36.5-7.1l-1.8-0.2h-0.1l-0.1,0c-6.1-0.6-12.4-1-19.1-1h-1c-6.6,0-13,0.4-19.1,1l-0.1,0l-1.8,0.2
                            c-12.4,1.3-24.6,3.7-36.4,7.1l-14.7,4.3l0.2,1c-35.8,13.8-66.8,37.3-89.6,67.4c-25.8,34.1-41.1,76.7-41.1,122.7
                            c0,33,5.7,60.2,14.6,82.6c13.3,33.7,33.7,56.4,50,73.7c8.2,8.6,15.4,16,20.3,22.2c5,6.3,7.4,11.2,8.1,15.1
                            c3.6,18.9,3.9,42.6,3.9,48.7v1.7c0,27.3,22.1,49.3,49.3,49.3h114c27.3,0,49.3-22.1,49.3-49.3v-1.7c0-6,0.4-29.8,3.9-48.7
                            c0.5-2.6,1.6-5.6,3.9-9.3c3.9-6.4,11.3-14.3,20.4-23.9c13.7-14.4,31.1-32.5,44.9-58.2C490.4,450.9,500.3,417.6,500.3,374.3
                            L500.3,374.3L500.3,374.3z M453.7,444.3c-10.9,27.5-27.2,46.1-43,62.7c-7.9,8.3-15.6,16.1-22.3,24.6c-6.6,8.5-12.6,18.1-14.9,30
                            c-4.3,23.2-4.5,48-4.5,55.1v1.6c0,8.2-6.7,14.9-14.9,14.9H240c-4.2,0-7.8-1.6-10.6-4.4c-2.7-2.7-4.3-6.3-4.3-10.5
                            c0-0.2,0-0.8,0-1.7c0-7.2-0.2-31.9-4.5-55c-1.5-7.8-4.7-14.9-8.5-21.1c-6.9-10.9-15.6-19.9-24.7-29.5
                            c-13.7-14.3-28.2-29.7-39.5-50.7c-11.3-21-19.6-47.8-19.6-86c0-38.4,12.7-73.6,34.2-101.9c21.5-28.4,51.7-49.8,86.5-60.2l4.3-1.3
                            c8.4-2.2,17.1-3.9,25.9-4.8h0.1l1.6-0.2c5.2-0.5,10.3-0.8,15.3-0.9l0.9,0.1l0.9-0.1c5,0,10.1,0.3,15.3,0.8h-0.1l1.7,0.2h0
                            c8.9,0.9,17.5,2.6,25.9,4.8l4.4,1.3c34.9,10.4,65.1,31.8,86.5,60.2c21.4,28.4,34.1,63.6,34.1,101.9
                            C465.8,403.4,460.9,425.9,453.7,444.3L453.7,444.3L453.7,444.3z M318.4,171.8L318.4,171.8L318.4,171.8L318.4,171.8z M275.6,171.8
                            L275.6,171.8C275.6,171.8,275.6,171.8,275.6,171.8L275.6,171.8L275.6,171.8z M353.6,681.2H240.5c-11.7,0-21.2,9.5-21.2,21.2
                            c0,11.7,9.5,21.2,21.2,21.2h113.1c11.7,0,21.2-9.5,21.2-21.2C374.8,690.6,365.3,681.2,353.6,681.2L353.6,681.2z M353.6,734.7H241
                            c-11.9,0-22,9.8-21.7,21.7c0.3,11.5,9.7,20.7,21.2,20.7h113.1c11.7,0,21.2-9.5,21.2-21.2C374.8,744.2,365.3,734.7,353.6,734.7
                            L353.6,734.7z M306.9,788.6h-58.2c0,0,0,0,0,0c0,0.6-0.1,1.2-0.1,1.9c0,11.7,18,21.2,34.6,21.2h27.6c16.7,0,34.6-9.5,34.6-21.2
                            c0-0.7-0.1-1.3-0.1-1.9c0,0,0,0,0,0H306.9L306.9,788.6L306.9,788.6z">
    </path>
  </g>
</svg>