<?xml version="1.0" encoding="utf-8"?>
<!-- Generator: Adobe Illustrator 19.2.1, SVG Export Plug-In . SVG Version: 6.00 Build 0)  -->
<svg version="1.1" id="图层_1" xmlns="http://www.w3.org/2000/svg" xmlns:xlink="http://www.w3.org/1999/xlink" x="0px" y="0px"
	 viewBox="0 0 595.3 841.9" style="enable-background:new 0 0 595.3 841.9;" xml:space="preserve">
			            <style type="text/css">
			                .st0{fill:#272536;}
			            </style>
		               <g>
		                    <path class="st0" d="M179.7,713.9c-32.7,0-58.6,25.9-58.6,58.6c0,32.7,25.9,58.6,58.6,58.6s58.6-25.9,58.6-58.6
		                        C238.3,741.1,212.4,713.9,179.7,713.9L179.7,713.9z M647.2,363.6c32.7,0,58.6-25.9,58.6-58.6s-25.9-58.6-58.6-58.6
		                        c-32.7,0-58.6,25.9-58.6,58.6c0,4.1,0,6.8,1.4,9.5l-111.8,68.2c-6.8-32.7-21.8-61.3-43.6-85.9l178.6-178.6
		                        c9.5,6.8,21.8,10.9,34.1,10.9c32.7,0,58.6-25.9,58.6-58.6c0-31.4-25.9-57.2-58.6-57.2c-32.7,0-58.6,25.9-58.6,58.6
		                        c0,12.3,4.1,24.5,10.9,34.1L421,284.5c-27.3-24.5-60-40.9-98.1-46.3L391,125c6.8,2.7,13.6,4.1,21.8,4.1c32.7,0,58.6-25.9,58.6-58.6
		                        s-25.9-58.6-58.6-58.6s-58.6,25.9-58.6,58.6c0,19.1,9.5,36.8,24.5,47.7l-72.2,118.6c-4.1,0-6.8,0-10.9,0c-6.8,0-13.6,0-21.8,1.4
		                        l-70.9-114.5c19.1-9.5,32.7-30,32.7-51.8c0-32.7-25.9-58.6-58.6-58.6s-58.6,25.9-58.6,58.6s25.9,58.6,58.6,58.6
		                        c4.1,0,8.2,0,12.3-1.4l69.5,111.8c-38.2,6.8-72.2,27.3-98.1,53.2L-15.2,115.5C-3,104.6,5.2,89.6,5.2,71.9
		                        c0-32.7-27.3-58.6-58.6-58.6c-32.7,0-58.6,25.9-58.6,58.6s25.9,58.6,58.6,58.6c8.2,0,15-1.4,21.8-4.1L151.1,309
		                        c-16.4,20.4-28.6,45-34.1,72.2L3.9,313.1l0,0c0-2.7,1.4-5.5,1.4-8.2c0-32.7-25.9-58.6-58.6-58.6s-58.6,25.9-58.6,58.6
		                        s25.9,58.6,58.6,58.6c24.5,0,45-15,54.5-36.8l113.1,68.2c-1.4,9.5-2.7,17.7-2.7,27.3c0,10.9,1.4,21.8,2.7,31.4L-5.5,527.1l6.8,12.3
		                        L117,468.5c8.2,30,21.8,55.9,42.3,79.1L-19.3,726.1c-9.5-6.8-21.8-10.9-34.1-10.9c-32.7,0-58.6,25.9-58.6,58.6
		                        c0,31.4,25.9,57.2,58.6,57.2s58.6-25.9,58.6-58.6c0-12.3-4.1-24.5-10.9-34.1l179.9-179.9c21.8,20.4,49.1,34.1,79.1,42.3
		                        l-73.6,117.9l10.9,6.8l73.6-120.6c10.9,1.4,20.4,2.7,31.4,2.7c9.5,0,19.1-1.4,27.3-2.7L391,718c-21.8,8.2-36.8,30-36.8,54.5
		                        c0,32.7,25.9,58.6,58.6,58.6s58.6-25.9,58.6-58.6c0-32.7-25.9-58.6-58.6-58.6c-2.7,0-5.5,0-8.2,1.4l0,0l-66.8-113.1
		                        c27.3-6.8,51.8-17.7,72.2-34.1l182.6,182.7c-2.7,6.8-4.1,15-4.1,21.8c0,32.7,25.9,58.6,58.6,58.6c32.7,0,58.6-25.9,58.6-58.6
		                        c0-32.7-25.9-58.6-58.6-58.6c-17.7,0-32.7,8.2-43.6,20.4L425,555.8c27.3-25.9,46.3-60,53.2-99.5L591.3,523c-1.4,5.5-2.7,9.5-2.7,15
		                        c0,32.7,25.9,58.6,58.6,58.6c32.7,0,58.6-25.9,58.6-58.6c0-32.7-25.9-58.6-58.6-58.6c-21.8,0-40.9,12.3-50.4,30l-115.9-69.5
		                        c1.4-6.8,1.4-13.6,1.4-20.4c0-8.2-1.4-16.4-1.4-24.5l114.5-69.5C603.6,348.6,624.1,363.6,647.2,363.6L647.2,363.6z M-53.4,598
		                        c32.7,0,58.6-25.9,58.6-58.6c0-32.7-25.9-58.6-58.6-58.6s-58.6,25.9-58.6,58.6C-112,570.7-86.1,598-53.4,598L-53.4,598z">
		                    </path>
		               </g>
	                </svg>