<?xml version="1.0" encoding="utf-8"?>
<!-- Generator: Adobe Illustrator 19.2.1, SVG Export Plug-In . SVG Version: 6.00 Build 0)  -->
<svg version="1.1" id="图层_1" xmlns="http://www.w3.org/2000/svg" xmlns:xlink="http://www.w3.org/1999/xlink" x="0px" y="0px"
	 viewBox="0 0 595.3 841.9" style="enable-background:new 0 0 595.3 841.9;" xml:space="preserve">
				        <style type="text/css">
				            .st0{fill-rule:evenodd;clip-rule:evenodd;fill:#272536;}
				        </style>
				        <g>
				                <path class="st0" d="M611.7,651.5v-32.6c0-66.4-56.2-120.5-125.2-120.5h-8.1c-69,0-125.2,54.1-125.2,120.5v85.5
					                            c0,36.4-30.8,66.1-68.6,66.1h-8.1c-37.8,0-68.6-29.6-68.6-66.1V544.3h23.4V520c141.1-12.6,170.1-178.6,191.3-300.6
					                            c1.7-9.6,3.3-19,5-28.2c9.9-54.9,2.6-97.4-21.9-126.3c-26.9-31.8-63.4-33.9-67.5-34l-43.6,0c-7.2-7.3-17.4-12-28.8-12
					                            c-22,0-39.8,17.1-39.8,38.3c0,21.1,17.8,38.3,39.8,38.3c10.4,0,19.7-3.9,26.8-10.1h43.9c1.6,0.2,15.2,2,25.3,14
					                            c13.5,15.9,16.9,44.5,10.1,82.6c-1.7,9.3-3.3,18.8-5,28.5c-23.8,136.7-49.2,242.8-135.5,254.8v-22h-106v22.6
					                            C35.2,457.1,9.2,349.6-15,210.4c-1.7-9.7-3.4-19.3-5-28.5c-6.8-37.6-3.5-65.9,9.5-82c10.3-12.7,24.4-14.5,25.9-14.6h43.9
					                            c7.1,6.2,16.4,10.1,26.8,10.1c22,0,39.7-17.1,39.7-38.3C125.8,36,108,18.9,86,18.9c-11.3,0-21.5,4.6-28.8,12H14.6l-0.9,0
					                            C9.6,31-27,33.1-53.8,64.9c-24.4,28.9-31.8,71.4-21.9,126.3c1.7,9.2,3.3,18.6,5,28.2c21.5,123.3,50.8,291.7,196.1,300.9v23.9h26.1
					                            v160.2c0,66.4,56.2,120.5,125.2,120.5h8.1c69,0,125.2-54.1,125.2-120.5v-85.5c0-36.4,30.8-66.1,68.6-66.1h8.1
					                            c37.8,0,68.6,29.6,68.6,66.1V652c-36.3,11.7-62.6,44.6-62.6,83.5c0,48.7,41,88.1,91.5,88.1c50.6,0,91.5-39.4,91.5-88.1
					                            C675.7,696.1,648.8,662.8,611.7,651.5L611.7,651.5 M584.1,764.7c-16.7,0-30.3-13-30.3-29.1c0-9.6,4.9-18,12.3-23.3h36
					                            c7.4,5.3,12.3,13.7,12.3,23.3C614.4,751.7,600.9,764.7,584.1,764.7L584.1,764.7 M584.1,764.7L584.1,764.7z">
					            </path>
				        </g>
				    </svg>